<svg width="246" height="41" viewBox="0 0 246 41" fill="none" xmlns="http://www.w3.org/2000/svg">
<path d="M41.7625 3.85H53.8625V6.425H49.0875V22H46.4125V6.425H41.7625V3.85ZM56.6883 22V2.575H59.1883V13.9L59.1633 13.475C59.5133 12.7917 60.0466 12.225 60.7633 11.775C61.4799 11.325 62.3383 11.1 63.3383 11.1C64.3216 11.1 65.1299 11.3917 65.7633 11.975C66.4133 12.5583 66.7466 13.3167 66.7633 14.25V22H64.1883V15.15C64.1716 14.6167 64.0133 14.1833 63.7133 13.85C63.4133 13.5 62.9466 13.3167 62.3133 13.3C61.7466 13.3 61.2299 13.475 60.7633 13.825C60.2966 14.1583 59.9299 14.625 59.6633 15.225C59.3966 15.8083 59.2633 16.475 59.2633 17.225V22H56.6883ZM75.2519 22.25C74.0353 22.25 72.9936 22.0167 72.1269 21.55C71.2603 21.0667 70.5936 20.4083 70.1269 19.575C69.6603 18.725 69.4269 17.7583 69.4269 16.675C69.4269 15.6417 69.6853 14.7083 70.2019 13.875C70.7353 13.025 71.4436 12.35 72.3269 11.85C73.2269 11.35 74.2186 11.1 75.3019 11.1C76.7019 11.1 77.8603 11.5083 78.7769 12.325C79.7103 13.1417 80.3353 14.2833 80.6519 15.75L72.1269 18.7L71.5269 17.2L78.3519 14.75L77.8269 15.075C77.6269 14.5583 77.3103 14.1083 76.8769 13.725C76.4436 13.325 75.8519 13.125 75.1019 13.125C74.5019 13.125 73.9603 13.275 73.4769 13.575C73.0103 13.8583 72.6353 14.2583 72.3519 14.775C72.0853 15.275 71.9519 15.8667 71.9519 16.55C71.9519 17.25 72.0936 17.8667 72.3769 18.4C72.6769 18.9167 73.0769 19.325 73.5769 19.625C74.0936 19.925 74.6686 20.075 75.3019 20.075C75.7519 20.075 76.1769 19.9917 76.5769 19.825C76.9936 19.6583 77.3853 19.45 77.7519 19.2L78.9269 21.1C78.3769 21.45 77.7769 21.7333 77.1269 21.95C76.4936 22.15 75.8686 22.25 75.2519 22.25Z" fill="#FF1D00"/>
<path d="M92.4116 22V1.112H92.4396L103.052 16.176L101.904 15.952L112.488 1.112H112.544V22H109.856V7.272L110.024 8.644L102.38 19.452H102.324L94.5676 8.644L95.0436 7.384V22H92.4116ZM122.113 22.28C121.03 22.28 120.041 22.0467 119.145 21.58C118.267 21.1133 117.567 20.432 117.045 19.536C116.541 18.6213 116.289 17.5107 116.289 16.204C116.289 14.916 116.559 13.8053 117.101 12.872C117.642 11.92 118.361 11.192 119.257 10.688C120.171 10.184 121.17 9.932 122.253 9.932C123.335 9.932 124.25 10.184 124.997 10.688C125.743 11.1733 126.313 11.752 126.705 12.424L126.537 12.872L126.789 10.408H129.197V22H126.593V18.976L126.873 19.648C126.798 19.8347 126.63 20.0773 126.369 20.376C126.126 20.656 125.79 20.9453 125.361 21.244C124.95 21.5427 124.474 21.7947 123.933 22C123.391 22.1867 122.785 22.28 122.113 22.28ZM122.813 20.124C123.466 20.124 124.054 20.0027 124.577 19.76C125.099 19.5173 125.529 19.1813 125.865 18.752C126.219 18.304 126.462 17.772 126.593 17.156V14.888C126.443 14.328 126.182 13.8427 125.809 13.432C125.435 13.0027 124.987 12.676 124.465 12.452C123.942 12.2093 123.363 12.088 122.729 12.088C122.038 12.088 121.403 12.256 120.825 12.592C120.246 12.928 119.779 13.3947 119.425 13.992C119.089 14.5893 118.921 15.2893 118.921 16.092C118.921 16.8387 119.098 17.52 119.453 18.136C119.807 18.752 120.283 19.2373 120.881 19.592C121.478 19.9467 122.122 20.124 122.813 20.124ZM138.855 27.74C137.996 27.74 137.24 27.6373 136.587 27.432C135.934 27.2453 135.336 26.9747 134.795 26.62C134.272 26.2653 133.768 25.864 133.283 25.416L134.795 23.652C135.411 24.2307 136.036 24.6787 136.671 24.996C137.306 25.3133 138.015 25.472 138.799 25.472C139.676 25.472 140.414 25.3227 141.011 25.024C141.627 24.744 142.094 24.3427 142.411 23.82C142.728 23.316 142.887 22.728 142.887 22.056L142.915 18.92L143.139 19.424C142.803 20.2267 142.196 20.908 141.319 21.468C140.442 22.0093 139.378 22.28 138.127 22.28C137.063 22.28 136.083 22.0093 135.187 21.468C134.31 20.9267 133.6 20.1987 133.059 19.284C132.536 18.3507 132.275 17.3053 132.275 16.148C132.275 14.9347 132.555 13.8707 133.115 12.956C133.675 12.0227 134.412 11.2853 135.327 10.744C136.242 10.2027 137.24 9.932 138.323 9.932C139.35 9.932 140.283 10.1467 141.123 10.576C141.982 10.9867 142.607 11.5187 142.999 12.172L142.859 12.648L143.139 10.408H145.519V22.084C145.519 23.1293 145.248 24.0813 144.707 24.94C144.166 25.7987 143.4 26.48 142.411 26.984C141.422 27.488 140.236 27.74 138.855 27.74ZM134.879 16.092C134.879 16.8387 135.056 17.52 135.411 18.136C135.766 18.752 136.242 19.2373 136.839 19.592C137.455 19.9467 138.136 20.124 138.883 20.124C139.574 20.124 140.19 20.0027 140.731 19.76C141.291 19.4987 141.758 19.1533 142.131 18.724C142.504 18.276 142.766 17.7627 142.915 17.184V14.888C142.747 14.328 142.467 13.8427 142.075 13.432C141.683 13.0027 141.216 12.676 140.675 12.452C140.134 12.2093 139.536 12.088 138.883 12.088C138.136 12.088 137.455 12.256 136.839 12.592C136.242 12.928 135.766 13.404 135.411 14.02C135.056 14.6173 134.879 15.308 134.879 16.092ZM154.413 22.28C153.331 22.28 152.341 22.0467 151.445 21.58C150.568 21.1133 149.868 20.432 149.345 19.536C148.841 18.6213 148.589 17.5107 148.589 16.204C148.589 14.916 148.86 13.8053 149.401 12.872C149.943 11.92 150.661 11.192 151.557 10.688C152.472 10.184 153.471 9.932 154.553 9.932C155.636 9.932 156.551 10.184 157.297 10.688C158.044 11.1733 158.613 11.752 159.005 12.424L158.837 12.872L159.089 10.408H161.497V22H158.893V18.976L159.173 19.648C159.099 19.8347 158.931 20.0773 158.669 20.376C158.427 20.656 158.091 20.9453 157.661 21.244C157.251 21.5427 156.775 21.7947 156.233 22C155.692 22.1867 155.085 22.28 154.413 22.28ZM155.113 20.124C155.767 20.124 156.355 20.0027 156.877 19.76C157.4 19.5173 157.829 19.1813 158.165 18.752C158.52 18.304 158.763 17.772 158.893 17.156V14.888C158.744 14.328 158.483 13.8427 158.109 13.432C157.736 13.0027 157.288 12.676 156.765 12.452C156.243 12.2093 155.664 12.088 155.029 12.088C154.339 12.088 153.704 12.256 153.125 12.592C152.547 12.928 152.08 13.3947 151.725 13.992C151.389 14.5893 151.221 15.2893 151.221 16.092C151.221 16.8387 151.399 17.52 151.753 18.136C152.108 18.752 152.584 19.2373 153.181 19.592C153.779 19.9467 154.423 20.124 155.113 20.124ZM166.648 12.536C166.069 12.536 165.574 12.3587 165.164 12.004C164.753 11.6493 164.548 11.1173 164.548 10.408V9.316H166.536V9.68C166.536 9.97867 166.61 10.1747 166.76 10.268C166.909 10.3613 167.152 10.408 167.488 10.408H174.908L167.964 20.404L167.46 19.844H174.824V22H164.1L171.184 11.808L171.632 12.536H166.648ZM178.125 10.408H180.729V22H178.125V10.408ZM177.929 6.208C177.929 5.79733 178.087 5.452 178.405 5.172C178.741 4.892 179.105 4.752 179.497 4.752C179.889 4.752 180.234 4.892 180.533 5.172C180.85 5.452 181.009 5.79733 181.009 6.208C181.009 6.63733 180.85 6.992 180.533 7.272C180.234 7.53333 179.889 7.664 179.497 7.664C179.105 7.664 178.741 7.524 178.405 7.244C178.087 6.964 177.929 6.61867 177.929 6.208ZM187.138 10.408L187.362 13.236L187.25 12.788C187.623 11.9293 188.23 11.248 189.07 10.744C189.91 10.2213 190.881 9.96 191.982 9.96C193.083 9.96 193.979 10.2867 194.67 10.94C195.379 11.5747 195.743 12.4053 195.762 13.432V22H193.13V14.356C193.111 13.7213 192.925 13.208 192.57 12.816C192.234 12.4053 191.702 12.2 190.974 12.2C190.302 12.2 189.695 12.3867 189.154 12.76C188.613 13.1333 188.183 13.6467 187.866 14.3C187.567 14.9533 187.418 15.7093 187.418 16.568V22H184.814V10.408H187.138ZM205.247 22.28C203.921 22.28 202.783 22.0187 201.831 21.496C200.879 20.9547 200.141 20.2267 199.619 19.312C199.115 18.3787 198.863 17.3147 198.863 16.12C198.863 14.9813 199.152 13.9453 199.731 13.012C200.309 12.0787 201.084 11.332 202.055 10.772C203.025 10.212 204.108 9.932 205.303 9.932C206.833 9.932 208.103 10.38 209.111 11.276C210.119 12.172 210.8 13.404 211.155 14.972L201.607 18.332L200.991 16.792L208.831 13.936L208.271 14.3C208.047 13.684 207.673 13.152 207.151 12.704C206.628 12.2373 205.947 12.004 205.107 12.004C204.397 12.004 203.763 12.1813 203.203 12.536C202.643 12.872 202.204 13.3387 201.887 13.936C201.569 14.5333 201.411 15.2147 201.411 15.98C201.411 16.7827 201.579 17.492 201.915 18.108C202.251 18.7053 202.708 19.1813 203.287 19.536C203.884 19.872 204.556 20.04 205.303 20.04C205.807 20.04 206.292 19.9467 206.759 19.76C207.244 19.5733 207.692 19.3307 208.103 19.032L209.307 20.964C208.728 21.356 208.075 21.6733 207.347 21.916C206.637 22.1587 205.937 22.28 205.247 22.28Z" fill="white"/>
<path d="M58.6854 26.986H60.4314V40H58.6854V26.986ZM64.9798 32.548L65.1238 34.366L65.0518 34.078C65.2918 33.526 65.6818 33.088 66.2218 32.764C66.7618 32.428 67.3858 32.26 68.0938 32.26C68.8018 32.26 69.3778 32.47 69.8218 32.89C70.2778 33.298 70.5118 33.832 70.5238 34.492V40H68.8318V35.086C68.8198 34.678 68.6998 34.348 68.4718 34.096C68.2558 33.832 67.9138 33.7 67.4458 33.7C67.0138 33.7 66.6238 33.82 66.2758 34.06C65.9278 34.3 65.6518 34.63 65.4478 35.05C65.2558 35.47 65.1598 35.956 65.1598 36.508V40H63.4858V32.548H64.9798ZM73.885 29.272H75.559V32.584H77.611V33.898H75.559V40H73.885V33.898H72.517V32.584H73.885V29.272ZM82.8198 40.18C81.9678 40.18 81.2358 40.012 80.6238 39.676C80.0118 39.328 79.5378 38.86 79.2018 38.272C78.8778 37.672 78.7158 36.988 78.7158 36.22C78.7158 35.488 78.9018 34.822 79.2738 34.222C79.6458 33.622 80.1438 33.142 80.7678 32.782C81.3918 32.422 82.0878 32.242 82.8558 32.242C83.8398 32.242 84.6558 32.53 85.3038 33.106C85.9518 33.682 86.3898 34.474 86.6178 35.482L80.4798 37.642L80.0838 36.652L85.1238 34.816L84.7638 35.05C84.6198 34.654 84.3798 34.312 84.0438 34.024C83.7078 33.724 83.2698 33.574 82.7298 33.574C82.2738 33.574 81.8658 33.688 81.5058 33.916C81.1458 34.132 80.8638 34.432 80.6598 34.816C80.4558 35.2 80.3538 35.638 80.3538 36.13C80.3538 36.646 80.4618 37.102 80.6778 37.498C80.8938 37.882 81.1878 38.188 81.5598 38.416C81.9438 38.632 82.3758 38.74 82.8558 38.74C83.1798 38.74 83.4918 38.68 83.7918 38.56C84.1038 38.44 84.3918 38.284 84.6558 38.092L85.4298 39.334C85.0578 39.586 84.6378 39.79 84.1698 39.946C83.7138 40.102 83.2638 40.18 82.8198 40.18ZM89.9393 32.548L90.1013 34.708L90.0113 34.42C90.2033 33.964 90.4793 33.58 90.8393 33.268C91.2113 32.944 91.5953 32.698 91.9913 32.53C92.3993 32.35 92.7533 32.26 93.0533 32.26L92.9633 33.916C92.3993 33.88 91.9013 33.988 91.4693 34.24C91.0493 34.492 90.7133 34.828 90.4613 35.248C90.2213 35.668 90.1013 36.118 90.1013 36.598V40H88.4453V32.548H89.9393ZM96.4369 32.548L96.5809 34.366L96.5089 34.078C96.7489 33.526 97.1389 33.088 97.6789 32.764C98.2189 32.428 98.8429 32.26 99.5509 32.26C100.259 32.26 100.835 32.47 101.279 32.89C101.735 33.298 101.969 33.832 101.981 34.492V40H100.289V35.086C100.277 34.678 100.157 34.348 99.9289 34.096C99.7129 33.832 99.3709 33.7 98.9029 33.7C98.4709 33.7 98.0809 33.82 97.7329 34.06C97.3849 34.3 97.1089 34.63 96.9049 35.05C96.7129 35.47 96.6169 35.956 96.6169 36.508V40H94.9429V32.548H96.4369ZM107.718 40.18C107.022 40.18 106.386 40.03 105.81 39.73C105.246 39.43 104.796 38.992 104.46 38.416C104.136 37.828 103.974 37.114 103.974 36.274C103.974 35.446 104.148 34.732 104.496 34.132C104.844 33.52 105.306 33.052 105.882 32.728C106.47 32.404 107.112 32.242 107.808 32.242C108.504 32.242 109.092 32.404 109.572 32.728C110.052 33.04 110.418 33.412 110.67 33.844L110.562 34.132L110.724 32.548H112.272V40H110.598V38.056L110.778 38.488C110.73 38.608 110.622 38.764 110.454 38.956C110.298 39.136 110.082 39.322 109.806 39.514C109.542 39.706 109.236 39.868 108.888 40C108.54 40.12 108.15 40.18 107.718 40.18ZM108.168 38.794C108.588 38.794 108.966 38.716 109.302 38.56C109.638 38.404 109.914 38.188 110.13 37.912C110.358 37.624 110.514 37.282 110.598 36.886V35.428C110.502 35.068 110.334 34.756 110.094 34.492C109.854 34.216 109.566 34.006 109.23 33.862C108.894 33.706 108.522 33.628 108.114 33.628C107.67 33.628 107.262 33.736 106.89 33.952C106.518 34.168 106.218 34.468 105.99 34.852C105.774 35.236 105.666 35.686 105.666 36.202C105.666 36.682 105.78 37.12 106.008 37.516C106.236 37.912 106.542 38.224 106.926 38.452C107.31 38.68 107.724 38.794 108.168 38.794ZM115.619 29.272H117.293V32.584H119.345V33.898H117.293V40H115.619V33.898H114.251V32.584H115.619V29.272ZM121.098 32.548H122.772V40H121.098V32.548ZM120.972 29.848C120.972 29.584 121.074 29.362 121.278 29.182C121.494 29.002 121.728 28.912 121.98 28.912C122.232 28.912 122.454 29.002 122.646 29.182C122.85 29.362 122.952 29.584 122.952 29.848C122.952 30.124 122.85 30.352 122.646 30.532C122.454 30.7 122.232 30.784 121.98 30.784C121.728 30.784 121.494 30.694 121.278 30.514C121.074 30.334 120.972 30.112 120.972 29.848ZM124.75 36.202C124.75 35.458 124.924 34.786 125.272 34.186C125.632 33.586 126.124 33.112 126.748 32.764C127.372 32.416 128.08 32.242 128.872 32.242C129.688 32.242 130.402 32.416 131.014 32.764C131.626 33.112 132.1 33.586 132.436 34.186C132.772 34.786 132.94 35.458 132.94 36.202C132.94 36.946 132.772 37.624 132.436 38.236C132.1 38.836 131.62 39.31 130.996 39.658C130.384 40.006 129.67 40.18 128.854 40.18C128.062 40.18 127.354 40.018 126.73 39.694C126.118 39.358 125.632 38.896 125.272 38.308C124.924 37.708 124.75 37.006 124.75 36.202ZM126.424 36.22C126.424 36.7 126.532 37.138 126.748 37.534C126.964 37.918 127.252 38.224 127.612 38.452C127.984 38.68 128.392 38.794 128.836 38.794C129.304 38.794 129.718 38.68 130.078 38.452C130.45 38.224 130.738 37.918 130.942 37.534C131.146 37.138 131.248 36.7 131.248 36.22C131.248 35.74 131.146 35.308 130.942 34.924C130.738 34.528 130.45 34.216 130.078 33.988C129.718 33.748 129.304 33.628 128.836 33.628C128.38 33.628 127.966 33.748 127.594 33.988C127.234 34.228 126.946 34.546 126.73 34.942C126.526 35.326 126.424 35.752 126.424 36.22ZM136.431 32.548L136.575 34.366L136.503 34.078C136.743 33.526 137.133 33.088 137.673 32.764C138.213 32.428 138.837 32.26 139.545 32.26C140.253 32.26 140.829 32.47 141.273 32.89C141.729 33.298 141.963 33.832 141.975 34.492V40H140.283V35.086C140.271 34.678 140.151 34.348 139.923 34.096C139.707 33.832 139.365 33.7 138.897 33.7C138.465 33.7 138.075 33.82 137.727 34.06C137.379 34.3 137.103 34.63 136.899 35.05C136.707 35.47 136.611 35.956 136.611 36.508V40H134.937V32.548H136.431ZM147.712 40.18C147.016 40.18 146.38 40.03 145.804 39.73C145.24 39.43 144.79 38.992 144.454 38.416C144.13 37.828 143.968 37.114 143.968 36.274C143.968 35.446 144.142 34.732 144.49 34.132C144.838 33.52 145.3 33.052 145.876 32.728C146.464 32.404 147.106 32.242 147.802 32.242C148.498 32.242 149.086 32.404 149.566 32.728C150.046 33.04 150.412 33.412 150.664 33.844L150.556 34.132L150.718 32.548H152.266V40H150.592V38.056L150.772 38.488C150.724 38.608 150.616 38.764 150.448 38.956C150.292 39.136 150.076 39.322 149.8 39.514C149.536 39.706 149.23 39.868 148.882 40C148.534 40.12 148.144 40.18 147.712 40.18ZM148.162 38.794C148.582 38.794 148.96 38.716 149.296 38.56C149.632 38.404 149.908 38.188 150.124 37.912C150.352 37.624 150.508 37.282 150.592 36.886V35.428C150.496 35.068 150.328 34.756 150.088 34.492C149.848 34.216 149.56 34.006 149.224 33.862C148.888 33.706 148.516 33.628 148.108 33.628C147.664 33.628 147.256 33.736 146.884 33.952C146.512 34.168 146.212 34.468 145.984 34.852C145.768 35.236 145.66 35.686 145.66 36.202C145.66 36.682 145.774 37.12 146.002 37.516C146.23 37.912 146.536 38.224 146.92 38.452C147.304 38.68 147.718 38.794 148.162 38.794ZM154.893 26.068H156.567V40H154.893V26.068ZM166.112 32.548L166.256 34.366L166.184 34.078C166.424 33.526 166.814 33.088 167.354 32.764C167.894 32.428 168.518 32.26 169.226 32.26C169.934 32.26 170.51 32.47 170.954 32.89C171.41 33.298 171.644 33.832 171.656 34.492V40H169.964V35.086C169.952 34.678 169.832 34.348 169.604 34.096C169.388 33.832 169.046 33.7 168.578 33.7C168.146 33.7 167.756 33.82 167.408 34.06C167.06 34.3 166.784 34.63 166.58 35.05C166.388 35.47 166.292 35.956 166.292 36.508V40H164.618V32.548H166.112ZM177.754 40.18C176.902 40.18 176.17 40.012 175.558 39.676C174.946 39.328 174.472 38.86 174.136 38.272C173.812 37.672 173.65 36.988 173.65 36.22C173.65 35.488 173.836 34.822 174.208 34.222C174.58 33.622 175.078 33.142 175.702 32.782C176.326 32.422 177.022 32.242 177.79 32.242C178.774 32.242 179.59 32.53 180.238 33.106C180.886 33.682 181.324 34.474 181.552 35.482L175.414 37.642L175.018 36.652L180.058 34.816L179.698 35.05C179.554 34.654 179.314 34.312 178.978 34.024C178.642 33.724 178.204 33.574 177.664 33.574C177.208 33.574 176.8 33.688 176.44 33.916C176.08 34.132 175.798 34.432 175.594 34.816C175.39 35.2 175.288 35.638 175.288 36.13C175.288 36.646 175.396 37.102 175.612 37.498C175.828 37.882 176.122 38.188 176.494 38.416C176.878 38.632 177.31 38.74 177.79 38.74C178.114 38.74 178.426 38.68 178.726 38.56C179.038 38.44 179.326 38.284 179.59 38.092L180.364 39.334C179.992 39.586 179.572 39.79 179.104 39.946C178.648 40.102 178.198 40.18 177.754 40.18ZM187.938 32.548L190.134 37.57L189.81 37.606L191.862 32.548H193.5L190.08 40.45L187.686 35.338L185.508 40.45L182.052 32.548H183.69L186.012 37.804L185.436 37.696L187.092 33.844L186.498 32.548H187.938ZM197.115 40.144C196.587 40.144 196.071 40.054 195.567 39.874C195.075 39.682 194.667 39.4 194.343 39.028L195.045 38.056C195.357 38.356 195.675 38.584 195.999 38.74C196.335 38.884 196.665 38.956 196.989 38.956C197.229 38.956 197.451 38.926 197.655 38.866C197.859 38.806 198.021 38.71 198.141 38.578C198.273 38.434 198.339 38.242 198.339 38.002C198.339 37.738 198.249 37.528 198.069 37.372C197.901 37.216 197.679 37.09 197.403 36.994C197.139 36.898 196.857 36.808 196.557 36.724C195.945 36.52 195.477 36.238 195.153 35.878C194.829 35.518 194.667 35.08 194.667 34.564C194.667 34.168 194.763 33.802 194.955 33.466C195.159 33.118 195.453 32.836 195.837 32.62C196.233 32.404 196.719 32.296 197.295 32.296C197.811 32.296 198.273 32.362 198.681 32.494C199.089 32.614 199.473 32.818 199.833 33.106L199.167 34.15C198.951 33.922 198.693 33.754 198.393 33.646C198.093 33.538 197.823 33.478 197.583 33.466C197.379 33.454 197.181 33.484 196.989 33.556C196.809 33.628 196.659 33.73 196.539 33.862C196.419 33.994 196.359 34.15 196.359 34.33C196.359 34.582 196.443 34.786 196.611 34.942C196.779 35.098 196.995 35.224 197.259 35.32C197.535 35.404 197.805 35.494 198.069 35.59C198.441 35.698 198.771 35.842 199.059 36.022C199.347 36.202 199.575 36.424 199.743 36.688C199.923 36.952 200.013 37.282 200.013 37.678C200.013 38.122 199.905 38.536 199.689 38.92C199.485 39.292 199.167 39.592 198.735 39.82C198.315 40.036 197.775 40.144 197.115 40.144Z" fill="#E14242"/>
<path fill-rule="evenodd" clip-rule="evenodd" d="M23.3587 5H0L9.83524 13.5926H33.1939L23.3587 5ZM9.83522 13.5926V34L-2.09808e-05 25.4074V5.00001L9.83522 13.5926Z" fill="url(#paint0_linear_249_2)"/>
<path fill-rule="evenodd" clip-rule="evenodd" d="M23.3035 25.4026L23.3035 5L33.1156 13.5906L33.1156 33.9931L33.1156 33.9932H33.1156V33.9932L33.1156 33.9932H9.812L-3.43323e-05 25.4026H23.3035Z" fill="url(#paint1_linear_249_2)"/>
<defs>
<linearGradient id="paint0_linear_249_2" x1="23.3587" y1="5" x2="12.6767" y2="35.0114" gradientUnits="userSpaceOnUse">
<stop stop-color="#FF0000"/>
<stop offset="1" stop-color="#FE3D00" stop-opacity="0.26"/>
</linearGradient>
<linearGradient id="paint1_linear_249_2" x1="16.5578" y1="33.9932" x2="16.5578" y2="4.99999" gradientUnits="userSpaceOnUse">
<stop stop-color="#E7D0D0" stop-opacity="0.83"/>
<stop offset="1" stop-color="#FF8E8E"/>
</linearGradient>
</defs>
</svg>
